<?xml version="1.0" encoding="UTF-8"?>
<!-- Link Priority  network route priority icon (source art; rasterized by scripts/New-EthernetToggleAssets.ps1) -->
<svg xmlns="http://www.w3.org/2000/svg" viewBox="0 0 256 256" width="256" height="256">
  <rect width="256" height="256" rx="48" fill="#1E1E1E"/>
  <!-- Wi-Fi arcs (always on) -->
  <g fill="none" stroke="#46A043" stroke-width="8" stroke-linecap="round">
    <path d="M128 176 L128 176"/>
    <path d="M104 152 Q128 128 152 152"/>
    <path d="M88 136 Q128 96 168 136"/>
    <path d="M72 120 Q128 64 184 120"/>
  </g>
  <!-- Ethernet port -->
  <rect x="48" y="168" width="72" height="48" rx="6" fill="#2D2D2D" stroke="#4682DC" stroke-width="4"/>
  <rect x="56" y="176" width="56" height="32" rx="4" fill="#4682DC"/>
  <g fill="#B4B4B4">
    <rect x="62" y="184" width="6" height="16"/>
    <rect x="72" y="184" width="6" height="16"/>
    <rect x="82" y="184" width="6" height="16"/>
    <rect x="92" y="184" width="6" height="16"/>
    <rect x="102" y="184" width="6" height="16"/>
  </g>
  <!-- Priority arrow (route selection) -->
  <path d="M168 88 L208 88 L198 78 M208 88 L198 98" fill="none" stroke="#F0C040" stroke-width="8" stroke-linecap="round" stroke-linejoin="round"/>
  <circle cx="148" cy="88" r="14" fill="#F0C040"/>
</svg>
